<?xml version="1.0" encoding="UTF-8" standalone="no"?>
<!-- Generator: Adobe Illustrator 16.0.0, SVG Export Plug-In . SVG Version: 6.00 Build 0)  -->

<svg
   version="1.1"
   id="レイヤー_1"
   x="0px"
   y="0px"
   width="128px"
   height="128px"
   viewBox="0 0 128 128"
   enable-background="new 0 0 128 128"
   xml:space="preserve"
   sodipodi:docname="gaysper.svg"
   inkscape:version="1.1.1 (3bf5ae0d25, 2021-09-20)"
   xmlns:inkscape="http://www.inkscape.org/namespaces/inkscape"
   xmlns:sodipodi="http://sodipodi.sourceforge.net/DTD/sodipodi-0.dtd"
   xmlns="http://www.w3.org/2000/svg"
   xmlns:svg="http://www.w3.org/2000/svg"
   xmlns:rdf="http://www.w3.org/1999/02/22-rdf-syntax-ns#"
   xmlns:cc="http://creativecommons.org/ns#"
   xmlns:dc="http://purl.org/dc/elements/1.1/"><title
   id="title854">Gaysper</title><defs
   id="defs81"><filter
     id="mask-powermask-path-effect6479_inverse"
     inkscape:label="filtermask-powermask-path-effect6479"
     style="color-interpolation-filters:sRGB"
     height="100"
     width="100"
     x="-50"
     y="-50"><feColorMatrix
       id="mask-powermask-path-effect6479_primitive1"
       values="1"
       type="saturate"
       result="fbSourceGraphic" /><feColorMatrix
       id="mask-powermask-path-effect6479_primitive2"
       values="-1 0 0 0 1 0 -1 0 0 1 0 0 -1 0 1 0 0 0 1 0 "
       in="fbSourceGraphic" /></filter><clipPath
     clipPathUnits="userSpaceOnUse"
     id="clipPath6314"><path
       style="color:#000000;display:inline;fill:#ffffff;-inkscape-stroke:none"
       d="m 66.158249,15.757813 c -11.106979,0.02394 -22.381139,4.714656 -30.294922,12.55664 -5.046162,4.99818 -8.695061,11.898515 -10.621094,19.96875 l -0.04297,0.181641 0.113281,0.148437 c 0.242488,0.319804 0.978826,1.435946 1.373047,2.423828 0.19711,0.493942 0.297454,0.964526 0.265625,1.228516 -0.01591,0.131995 -0.0517,0.200318 -0.101563,0.25 -0.04986,0.04968 -0.132214,0.09941 -0.316406,0.119141 h -0.0039 l -0.0059,0.002 c -0.179687,0.02304 -0.351443,-0.0424 -0.5625,-0.1875 -0.20789,-0.142924 -0.419449,-0.356931 -0.65625,-0.56836 l -0.002,-0.0039 -0.0039,-0.002 c -0.654721,-0.562389 -1.40623,-0.991172 -2.181641,-1.333984 l -0.06836,-0.0293 -0.07227,-0.0039 c -0.209804,-0.01049 -0.334629,0.0069 -0.408203,-0.0078 -0.783709,-0.178847 -1.576566,-0.267578 -2.376953,-0.267578 -1.840024,0 -4.582556,0.500112 -7.099609,2.804687 -3.07608,2.82381 -5.7987669,7.904401 -4.4570314,12.550782 0.1207894,0.41235 0.2896437,0.875045 0.5527344,1.265625 0.2630907,0.390579 0.6674961,0.740234 1.201172,0.740234 0.216033,0 0.45131,-0.03798 0.701172,-0.109375 h 0.002 c 0.98717,-0.289811 1.656581,-1.012532 2.591797,-2.050781 0.750039,-0.836885 1.576719,-1.750933 2.707031,-2.466797 0.524384,-0.332357 1.995258,-1.13086 3.699219,-1.13086 0.699872,0 1.327161,0.131959 1.898437,0.384766 1.322002,0.592876 1.877505,1.446441 2.134766,2.310547 0.25726,0.864106 0.186215,1.736317 0.138672,2.294922 l -0.002,0.0098 v 0.0098 c -0.007,0.201894 -0.04071,0.440436 -0.03125,0.714844 v 0.002 0.002 c 0.137221,3.309468 1.187561,7.288629 3.11914,11.867188 4.068145,9.675804 11.671698,17.285587 22.546875,22.580074 7.915776,3.85416 17.450698,5.21151 28.556641,4.06836 6.069954,-0.62683 13.171717,-1.98219 17.189453,-3.35352 l -0.07227,-0.76562 c -3.341967,-0.47299 -6.898086,-1.74575 -8.611328,-6.281248 -1.903145,-5.054754 0.369299,-11.024768 2.632813,-15.708984 4.694921,-9.721808 8.693203,-18.552964 9.673828,-27.880859 v -0.002 c 0.183347,-1.83347 0.247516,-3.644936 0.183594,-5.386719 C 99.015129,35.329577 92.28719,24.934342 81.894531,19.578125 76.966731,17.046338 71.670316,15.757813 66.158203,15.757813 Z"
       id="path6316" /></clipPath><clipPath
     clipPathUnits="userSpaceOnUse"
     id="clipPath6318"><path
       style="color:#000000;display:inline;fill:#ffffff;-inkscape-stroke:none"
       d="m 66.158249,15.757813 c -11.106979,0.02394 -22.381139,4.714656 -30.294922,12.55664 -5.046162,4.99818 -8.695061,11.898515 -10.621094,19.96875 l -0.04297,0.181641 0.113281,0.148437 c 0.242488,0.319804 0.978826,1.435946 1.373047,2.423828 0.19711,0.493942 0.297454,0.964526 0.265625,1.228516 -0.01591,0.131995 -0.0517,0.200318 -0.101563,0.25 -0.04986,0.04968 -0.132214,0.09941 -0.316406,0.119141 h -0.0039 l -0.0059,0.002 c -0.179687,0.02304 -0.351443,-0.0424 -0.5625,-0.1875 -0.20789,-0.142924 -0.419449,-0.356931 -0.65625,-0.56836 l -0.002,-0.0039 -0.0039,-0.002 c -0.654721,-0.562389 -1.40623,-0.991172 -2.181641,-1.333984 l -0.06836,-0.0293 -0.07227,-0.0039 c -0.209804,-0.01049 -0.334629,0.0069 -0.408203,-0.0078 -0.783709,-0.178847 -1.576566,-0.267578 -2.376953,-0.267578 -1.840024,0 -4.582556,0.500112 -7.099609,2.804687 -3.07608,2.82381 -5.7987669,7.904401 -4.4570314,12.550782 0.1207894,0.41235 0.2896437,0.875045 0.5527344,1.265625 0.2630907,0.390579 0.6674961,0.740234 1.201172,0.740234 0.216033,0 0.45131,-0.03798 0.701172,-0.109375 h 0.002 c 0.98717,-0.289811 1.656581,-1.012532 2.591797,-2.050781 0.750039,-0.836885 1.576719,-1.750933 2.707031,-2.466797 0.524384,-0.332357 1.995258,-1.13086 3.699219,-1.13086 0.699872,0 1.327161,0.131959 1.898437,0.384766 1.322002,0.592876 1.877505,1.446441 2.134766,2.310547 0.25726,0.864106 0.186215,1.736317 0.138672,2.294922 l -0.002,0.0098 v 0.0098 c -0.007,0.201894 -0.04071,0.440436 -0.03125,0.714844 v 0.002 0.002 c 0.137221,3.309468 1.187561,7.288629 3.11914,11.867188 4.068145,9.675804 11.671698,17.285587 22.546875,22.580074 7.915776,3.85416 17.450698,5.21151 28.556641,4.06836 6.069954,-0.62683 13.171717,-1.98219 17.189453,-3.35352 l -0.07227,-0.76562 c -3.341967,-0.47299 -6.898086,-1.74575 -8.611328,-6.281248 -1.903145,-5.054754 0.369299,-11.024768 2.632813,-15.708984 4.694921,-9.721808 8.693203,-18.552964 9.673828,-27.880859 v -0.002 c 0.183347,-1.83347 0.247516,-3.644936 0.183594,-5.386719 C 99.015129,35.329577 92.28719,24.934342 81.894531,19.578125 76.966731,17.046338 71.670316,15.757813 66.158203,15.757813 Z"
       id="path6320" /></clipPath><clipPath
     clipPathUnits="userSpaceOnUse"
     id="clipPath6322"><path
       style="color:#000000;display:inline;fill:#ffffff;-inkscape-stroke:none"
       d="m 66.158249,15.757813 c -11.106979,0.02394 -22.381139,4.714656 -30.294922,12.55664 -5.046162,4.99818 -8.695061,11.898515 -10.621094,19.96875 l -0.04297,0.181641 0.113281,0.148437 c 0.242488,0.319804 0.978826,1.435946 1.373047,2.423828 0.19711,0.493942 0.297454,0.964526 0.265625,1.228516 -0.01591,0.131995 -0.0517,0.200318 -0.101563,0.25 -0.04986,0.04968 -0.132214,0.09941 -0.316406,0.119141 h -0.0039 l -0.0059,0.002 c -0.179687,0.02304 -0.351443,-0.0424 -0.5625,-0.1875 -0.20789,-0.142924 -0.419449,-0.356931 -0.65625,-0.56836 l -0.002,-0.0039 -0.0039,-0.002 c -0.654721,-0.562389 -1.40623,-0.991172 -2.181641,-1.333984 l -0.06836,-0.0293 -0.07227,-0.0039 c -0.209804,-0.01049 -0.334629,0.0069 -0.408203,-0.0078 -0.783709,-0.178847 -1.576566,-0.267578 -2.376953,-0.267578 -1.840024,0 -4.582556,0.500112 -7.099609,2.804687 -3.07608,2.82381 -5.7987669,7.904401 -4.4570314,12.550782 0.1207894,0.41235 0.2896437,0.875045 0.5527344,1.265625 0.2630907,0.390579 0.6674961,0.740234 1.201172,0.740234 0.216033,0 0.45131,-0.03798 0.701172,-0.109375 h 0.002 c 0.98717,-0.289811 1.656581,-1.012532 2.591797,-2.050781 0.750039,-0.836885 1.576719,-1.750933 2.707031,-2.466797 0.524384,-0.332357 1.995258,-1.13086 3.699219,-1.13086 0.699872,0 1.327161,0.131959 1.898437,0.384766 1.322002,0.592876 1.877505,1.446441 2.134766,2.310547 0.25726,0.864106 0.186215,1.736317 0.138672,2.294922 l -0.002,0.0098 v 0.0098 c -0.007,0.201894 -0.04071,0.440436 -0.03125,0.714844 v 0.002 0.002 c 0.137221,3.309468 1.187561,7.288629 3.11914,11.867188 4.068145,9.675804 11.671698,17.285587 22.546875,22.580074 7.915776,3.85416 17.450698,5.21151 28.556641,4.06836 6.069954,-0.62683 13.171717,-1.98219 17.189453,-3.35352 l -0.07227,-0.76562 c -3.341967,-0.47299 -6.898086,-1.74575 -8.611328,-6.281248 -1.903145,-5.054754 0.369299,-11.024768 2.632813,-15.708984 4.694921,-9.721808 8.693203,-18.552964 9.673828,-27.880859 v -0.002 c 0.183347,-1.83347 0.247516,-3.644936 0.183594,-5.386719 C 99.015129,35.329577 92.28719,24.934342 81.894531,19.578125 76.966731,17.046338 71.670316,15.757813 66.158203,15.757813 Z"
       id="path6324" /></clipPath><clipPath
     clipPathUnits="userSpaceOnUse"
     id="clipPath6326"><path
       style="color:#000000;display:inline;fill:#ffffff;-inkscape-stroke:none"
       d="m 66.158249,15.757813 c -11.106979,0.02394 -22.381139,4.714656 -30.294922,12.55664 -5.046162,4.99818 -8.695061,11.898515 -10.621094,19.96875 l -0.04297,0.181641 0.113281,0.148437 c 0.242488,0.319804 0.978826,1.435946 1.373047,2.423828 0.19711,0.493942 0.297454,0.964526 0.265625,1.228516 -0.01591,0.131995 -0.0517,0.200318 -0.101563,0.25 -0.04986,0.04968 -0.132214,0.09941 -0.316406,0.119141 h -0.0039 l -0.0059,0.002 c -0.179687,0.02304 -0.351443,-0.0424 -0.5625,-0.1875 -0.20789,-0.142924 -0.419449,-0.356931 -0.65625,-0.56836 l -0.002,-0.0039 -0.0039,-0.002 c -0.654721,-0.562389 -1.40623,-0.991172 -2.181641,-1.333984 l -0.06836,-0.0293 -0.07227,-0.0039 c -0.209804,-0.01049 -0.334629,0.0069 -0.408203,-0.0078 -0.783709,-0.178847 -1.576566,-0.267578 -2.376953,-0.267578 -1.840024,0 -4.582556,0.500112 -7.099609,2.804687 -3.07608,2.82381 -5.7987669,7.904401 -4.4570314,12.550782 0.1207894,0.41235 0.2896437,0.875045 0.5527344,1.265625 0.2630907,0.390579 0.6674961,0.740234 1.201172,0.740234 0.216033,0 0.45131,-0.03798 0.701172,-0.109375 h 0.002 c 0.98717,-0.289811 1.656581,-1.012532 2.591797,-2.050781 0.750039,-0.836885 1.576719,-1.750933 2.707031,-2.466797 0.524384,-0.332357 1.995258,-1.13086 3.699219,-1.13086 0.699872,0 1.327161,0.131959 1.898437,0.384766 1.322002,0.592876 1.877505,1.446441 2.134766,2.310547 0.25726,0.864106 0.186215,1.736317 0.138672,2.294922 l -0.002,0.0098 v 0.0098 c -0.007,0.201894 -0.04071,0.440436 -0.03125,0.714844 v 0.002 0.002 c 0.137221,3.309468 1.187561,7.288629 3.11914,11.867188 4.068145,9.675804 11.671698,17.285587 22.546875,22.580074 7.915776,3.85416 17.450698,5.21151 28.556641,4.06836 6.069954,-0.62683 13.171717,-1.98219 17.189453,-3.35352 l -0.07227,-0.76562 c -3.341967,-0.47299 -6.898086,-1.74575 -8.611328,-6.281248 -1.903145,-5.054754 0.369299,-11.024768 2.632813,-15.708984 4.694921,-9.721808 8.693203,-18.552964 9.673828,-27.880859 v -0.002 c 0.183347,-1.83347 0.247516,-3.644936 0.183594,-5.386719 C 99.015129,35.329577 92.28719,24.934342 81.894531,19.578125 76.966731,17.046338 71.670316,15.757813 66.158203,15.757813 Z"
       id="path6328" /></clipPath><clipPath
     clipPathUnits="userSpaceOnUse"
     id="clipPath6330"><path
       style="color:#000000;display:inline;fill:#ffffff;-inkscape-stroke:none"
       d="m 66.158249,15.757813 c -11.106979,0.02394 -22.381139,4.714656 -30.294922,12.55664 -5.046162,4.99818 -8.695061,11.898515 -10.621094,19.96875 l -0.04297,0.181641 0.113281,0.148437 c 0.242488,0.319804 0.978826,1.435946 1.373047,2.423828 0.19711,0.493942 0.297454,0.964526 0.265625,1.228516 -0.01591,0.131995 -0.0517,0.200318 -0.101563,0.25 -0.04986,0.04968 -0.132214,0.09941 -0.316406,0.119141 h -0.0039 l -0.0059,0.002 c -0.179687,0.02304 -0.351443,-0.0424 -0.5625,-0.1875 -0.20789,-0.142924 -0.419449,-0.356931 -0.65625,-0.56836 l -0.002,-0.0039 -0.0039,-0.002 c -0.654721,-0.562389 -1.40623,-0.991172 -2.181641,-1.333984 l -0.06836,-0.0293 -0.07227,-0.0039 c -0.209804,-0.01049 -0.334629,0.0069 -0.408203,-0.0078 -0.783709,-0.178847 -1.576566,-0.267578 -2.376953,-0.267578 -1.840024,0 -4.582556,0.500112 -7.099609,2.804687 -3.07608,2.82381 -5.7987669,7.904401 -4.4570314,12.550782 0.1207894,0.41235 0.2896437,0.875045 0.5527344,1.265625 0.2630907,0.390579 0.6674961,0.740234 1.201172,0.740234 0.216033,0 0.45131,-0.03798 0.701172,-0.109375 h 0.002 c 0.98717,-0.289811 1.656581,-1.012532 2.591797,-2.050781 0.750039,-0.836885 1.576719,-1.750933 2.707031,-2.466797 0.524384,-0.332357 1.995258,-1.13086 3.699219,-1.13086 0.699872,0 1.327161,0.131959 1.898437,0.384766 1.322002,0.592876 1.877505,1.446441 2.134766,2.310547 0.25726,0.864106 0.186215,1.736317 0.138672,2.294922 l -0.002,0.0098 v 0.0098 c -0.007,0.201894 -0.04071,0.440436 -0.03125,0.714844 v 0.002 0.002 c 0.137221,3.309468 1.187561,7.288629 3.11914,11.867188 4.068145,9.675804 11.671698,17.285587 22.546875,22.580074 7.915776,3.85416 17.450698,5.21151 28.556641,4.06836 6.069954,-0.62683 13.171717,-1.98219 17.189453,-3.35352 l -0.07227,-0.76562 c -3.341967,-0.47299 -6.898086,-1.74575 -8.611328,-6.281248 -1.903145,-5.054754 0.369299,-11.024768 2.632813,-15.708984 4.694921,-9.721808 8.693203,-18.552964 9.673828,-27.880859 v -0.002 c 0.183347,-1.83347 0.247516,-3.644936 0.183594,-5.386719 C 99.015129,35.329577 92.28719,24.934342 81.894531,19.578125 76.966731,17.046338 71.670316,15.757813 66.158203,15.757813 Z"
       id="path6332" /></clipPath><clipPath
     clipPathUnits="userSpaceOnUse"
     id="clipPath6334"><path
       style="color:#000000;display:inline;fill:#ffffff;stroke-width:12.6463;-inkscape-stroke:none"
       d="m 397.60642,-2390.3036 c -57.34363,0.7416 -115.55038,146.0463 -156.40803,388.9681 -26.05256,154.829 -44.89127,368.5813 -54.83508,618.5736 l -0.22185,5.6267 0.58486,4.5982 c 1.25192,9.9066 5.05352,44.4814 7.08883,75.0831 1.01765,15.3009 1.53571,29.8782 1.37138,38.0558 -0.0821,4.0889 -0.26692,6.2053 -0.52436,7.7443 -0.25742,1.539 -0.6826,3.0794 -1.63355,3.6907 h -0.0201 l -0.0305,0.062 c -0.92769,0.7137 -1.81444,-1.3134 -2.9041,-5.8082 -1.0733,-4.4274 -2.16555,-11.0567 -3.38812,-17.6061 l -0.0103,-0.1208 -0.0201,-0.062 c -3.38022,-17.4212 -7.26015,-30.7036 -11.26347,-41.3229 l -0.35294,-0.9077 -0.37312,-0.1208 c -1.08318,-0.3249 -1.72763,0.2138 -2.10749,-0.2416 -4.04616,-5.5401 -8.13956,-8.2888 -12.27184,-8.2888 -9.49976,0 -23.65903,15.492 -36.65419,86.881 -15.88133,87.4734 -29.938144,244.85532 -23.01097,388.78665 0.62362,12.7734 1.49539,27.10634 2.85368,39.20537 1.3583,12.099 3.44618,22.93029 6.20147,22.93029 1.11535,0 2.33004,-1.17651 3.62004,-3.38812 h 0.0103 c 5.09661,-8.9775 8.55267,-31.36528 13.38105,-63.52721 3.87234,-25.92426 8.14036,-54.2388 13.97598,-76.41417 2.70732,-10.29545 10.30122,-35.03075 19.0985,-35.03075 3.61334,0 6.85193,4.08771 9.80134,11.91893 6.8253,18.36557 9.69327,44.80652 11.02147,71.57401 1.3282,26.76748 0.9614,53.78603 0.71595,71.08998 l -0.0103,0.30358 v 0.30357 c -0.0361,6.25409 -0.21018,13.64343 -0.16134,22.14379 v 0.0619 0.062 c 0.70845,102.51767 6.1312,225.78046 16.10364,367.61086 21.00321,299.72818 60.25919,535.45705 116.40606,699.46481 40.86793,119.39063 90.09527,161.43738 147.43355,126.02592 31.33824,-19.41736 68.00355,-61.40246 88.74651,-103.88226 l -0.37312,-23.71667 C 532.1921,265.37163 513.8324,225.94523 504.98719,85.44874 495.16155,-71.132791 506.89383,-256.06641 518.58,-401.16975 542.81916,-702.323 563.46168,-975.88644 568.52449,-1264.8374 v -0.062 c 0.9466,-56.7955 1.27789,-112.9094 0.94787,-166.8648 -2.23085,-352.2631 -36.96617,-674.2772 -90.62187,-840.1971 -25.44147,-78.4274 -52.78605,-118.3422 -81.24425,-118.3422 z"
       id="path6336" /></clipPath></defs><sodipodi:namedview
   id="namedview79"
   pagecolor="#505050"
   bordercolor="#ffffff"
   borderopacity="1"
   inkscape:pageshadow="0"
   inkscape:pageopacity="0"
   inkscape:pagecheckerboard="1"
   showgrid="false"
   inkscape:zoom="5.6171875"
   inkscape:cx="67.738526"
   inkscape:cy="58.837274"
   inkscape:window-width="1852"
   inkscape:window-height="1016"
   inkscape:window-x="0"
   inkscape:window-y="0"
   inkscape:window-maximized="1"
   inkscape:current-layer="layer3" />

<g
   inkscape:groupmode="layer"
   id="layer3"
   inkscape:label="Rainbow"
   style="display:inline"><g
     id="g5563"
     transform="matrix(0.1936916,0,0,0.03228193,-10.854775,92.921425)"
     clip-path="url(#clipPath6334)"><path
       id="path3833"
       style="fill:#750787"
       d="M 0,0 H 777 V 480 H 0 Z" /></g><path
     id="path3830"
     style="fill:#004dff"
     d="M -10.854775,77.426094 H 139.64359 V 92.921422 H -10.854775 Z"
     clip-path="url(#clipPath6330)" /><path
     id="path3827"
     style="fill:#008026"
     d="M -10.854775,61.930771 H 139.64359 V 77.426099 H -10.854775 Z"
     clip-path="url(#clipPath6326)" /><path
     id="path3824"
     style="fill:#ffed00"
     d="M -10.854775,46.43544 H 139.64359 V 61.930768 H -10.854775 Z"
     clip-path="url(#clipPath6322)" /><path
     id="path3821"
     style="fill:#ff8c00"
     d="M -10.854775,30.940113 H 139.64359 V 46.435441 H -10.854775 Z"
     clip-path="url(#clipPath6318)" /><path
     id="path3818"
     style="fill:#e40303"
     d="M -10.854775,15.444785 H 139.64359 V 30.940113 H -10.854775 Z"
     clip-path="url(#clipPath6314)" /></g><g
   inkscape:groupmode="layer"
   id="g135"
   inkscape:label="Mask"
   style="display:inline" /><g
   inkscape:groupmode="layer"
   id="layer2"
   inkscape:label="Ghost"
   style="display:inline"><g
     id="g2637-3-8-7"
     transform="matrix(0.78995329,0,0,0.78995329,3.318287,10.567989)"
     style="display:inline"><g
       id="g2635-6-7-5"><path
         fill="#78a3ad"
         d="m 127.17,53.17 c 0.27,-2.59 0.36,-5.16 0.27,-7.63 C 126.81,29.07 117.1,14.03 102.1,6.3 95.05,2.67 87.45,0.83 79.4,0.83 64.02,0.87 48.22,7.43 37.15,18.4 30.41,25.07 25.43,34.06 22.62,44.52 17.44,44.18 12.36,45.99 8.48,49.54 3.15,54.43 -1.18,63.05 1.19,71.27 c 1.49,5.15 5.61,7.71 10.29,6.32 2.85,-0.85 4.55,-2.75 5.92,-4.27 0.78,-0.87 1.46,-1.61 2.24,-2.11 0.34,-0.21 0.75,-0.39 1.14,-0.48 -0.05,0.55 -0.09,1.12 -0.07,1.67 0.2,4.84 1.68,10.56 4.39,17.01 5.7,13.57 16.25,24.18 31.33,31.53 8.5,4.14 18.33,6.23 29.27,6.23 3.19,0 6.56,-0.18 10,-0.53 6.19,-0.64 26.65,-3.2 30.09,-9.17 0.81,-1.41 0.89,-3 0.24,-4.48 -1.28,-2.86 -4.54,-2.86 -5.62,-2.86 l -1.22,0.01 -0.32,-0.01 c -4.61,-0.42 -6.53,-1.54 -7.62,-4.43 -1.66,-4.42 0.79,-10.52 3.12,-15.34 4.8,-9.89 11.36,-23.44 12.8,-37.19 z m -21.76,54.75 c 2.24,5.93 6.99,7.66 11.3,8.27 -5.01,1.71 -14,3.43 -21.65,4.22 -13.99,1.44 -25.96,-0.27 -35.88,-5.1 C 45.5,108.65 35.98,99.11 30.88,86.98 28.45,81.22 27.14,76.23 26.97,72.13 26.96,71.84 27,71.55 27.01,71.26 c 0.12,-1.41 0.42,-4.72 -3.17,-6.33 -0.79,-0.35 -1.66,-0.53 -2.61,-0.53 -2.31,0 -4.24,1.06 -4.95,1.51 -1.5,0.95 -2.58,2.15 -3.53,3.21 -1.18,1.31 -1.96,2.13 -3.05,2.45 -0.28,0.08 -0.54,0.12 -0.75,0.12 -0.92,0 -1.45,-1.19 -1.74,-2.18 -1.62,-5.61 1.72,-11.91 5.5,-15.38 3.08,-2.82 6.41,-3.42 8.65,-3.42 0.98,0 1.95,0.11 2.91,0.33 0.2,0.04 0.39,0.01 0.59,0.02 0.95,0.42 1.86,0.94 2.64,1.61 0.28,0.25 0.56,0.54 0.88,0.76 0.32,0.22 0.67,0.37 1.06,0.32 2.52,-0.27 -0.51,-4.98 -1.2,-5.89 2.42,-10.14 7,-18.79 13.31,-25.04 9.92,-9.83 24.08,-15.72 38,-15.75 6.9,0 13.52,1.61 19.69,4.78 13,6.7 21.41,19.7 21.95,33.91 0.08,2.18 0,4.45 -0.23,6.75 -1.23,11.7 -6.26,22.83 -12.2,35.13 -2.88,5.96 -5.85,13.64 -3.35,20.28 z"
         id="path2625-7-9-9" /><path
         fill="#78a3ad"
         d="m 98.25,83.81 c -3.28,-3.09 -8.04,-1 -11.76,1.88 -1.2,0.92 -2.14,1.97 -2.97,2.88 -1.26,1.39 -2.24,2.49 -3.76,2.93 -0.91,0.28 -1.3,0.06 -1.42,0 -0.49,-0.26 -0.93,-0.97 -1.25,-1.94 -0.03,-0.09 -0.06,-0.17 -0.09,-0.27 -0.46,-1.6 -0.5,-3.26 -0.27,-4.89 0.59,-4.18 3.08,-8.19 5.85,-10.71 3.03,-2.78 8.14,-4.49 12.26,-3.36 0.12,0.04 0.26,0.04 0.38,0.09 1.12,0.36 3.49,2.33 4.52,0.93 1.07,-1.43 -1.09,-4.02 -2.09,-4.93 -0.16,-0.13 -0.38,-0.22 -0.54,-0.35 -1.81,-1.25 -4.39,-1.76 -6.52,-1.67 -4.43,0.19 -8.68,2.02 -11.94,5.01 -3.79,3.46 -7.03,8.79 -7.73,14.51 -0.28,2.3 -0.17,4.66 0.5,6.99 0.77,2.65 2.19,4.63 4.12,5.68 1.02,0.55 2.58,1.08 4.64,0.76 0.39,-0.07 0.81,-0.16 1.23,-0.29 3.07,-0.91 4.84,-2.86 6.4,-4.59 1.22,-1.35 2.71,-2.93 4.32,-3.82 0.73,-0.4 1.25,-0.65 2.09,-0.78 0.84,-0.13 1.64,-0.11 2.42,0.21 0.62,0.23 1.14,0.77 1.77,0.92 1.64,0.42 2.35,-1.1 1.73,-2.44 -0.53,-1.19 -1.17,-2.08 -1.89,-2.75 z"
         id="path2627-5-2-2" /><path
         fill="#2f2f2f"
         d="m 75.54,45.63 c 2.01,0.4 4.12,0.92 5.96,1.88 1.87,1 3.41,2.69 5.54,3.2 1.39,0.33 3.17,-0.04 4.36,-0.8 2.51,-1.6 3.82,-4.47 3.91,-7.38 0.05,-2.09 -0.52,-4.21 -1.74,-5.91 -2.98,-4.21 -9.44,-4.92 -14.02,-2.92 -3.46,1.51 -8.96,5.14 -8.78,9.59 0.1,1.91 3.5,2.08 4.77,2.34 z"
         id="path2629-3-0-2" /><path
         fill="#2f2f2f"
         d="m 46.47,33.87 c 1.36,1.07 3.21,1.1 4.67,1.7 1.35,0.56 2.46,1.48 3.41,2.36 0.57,0.53 1.73,2.11 2.93,1.3 2.88,-1.92 3.96,-6.83 4.17,-9.96 0.3,-4.74 -2.36,-10.2 -7.33,-10.08 -2.08,0.05 -4.22,1.08 -5.98,2.72 -2.35,2.22 -3.84,5.37 -3.6,8.42 0.11,1.34 0.79,2.79 1.73,3.54 z"
         id="path2631-5-2-8" /><path
         fill="#2f2f2f"
         d="M 74.45,52.92 C 70,51.51 65.13,53.69 60.88,52.59 56.71,51.53 54.92,49.76 52.8,46.23 c -3.28,-5.46 -9.96,-3.32 -10.82,2.98 -0.38,2.76 -0.16,5.45 0.55,7.96 2.01,7.16 8.17,12.97 16.15,13.36 4.9,0.25 10.79,-1.52 15.46,-3.96 6.01,-3.14 7.89,-11.23 0.31,-13.65 z"
         id="path2633-6-3-9" /></g></g></g><metadata
   id="metadata852"><rdf:RDF><cc:Work
       rdf:about=""><dc:title>Gaysper</dc:title><dc:creator><cc:Agent><dc:title>Tori</dc:title></cc:Agent></dc:creator><cc:license
         rdf:resource="https://www.apache.org/licenses/LICENSE-2.0" /></cc:Work></rdf:RDF></metadata></svg>
